<svg width="200" height="199" viewBox="0 0 200 199" fill="none" xmlns="http://www.w3.org/2000/svg">
<path d="M5.89799 180.169L15.0831 151.588C2.01891 130.456 -2.64291 105.217 2.01399 80.8329C6.6709 56.4485 20.3097 34.6824 40.2494 19.8131C60.189 4.94387 84.9873 -1.95299 109.769 0.478318C134.552 2.90962 157.525 14.4932 174.174 32.9521C190.823 51.4109 199.943 75.4099 199.742 100.231C199.54 125.053 190.031 148.902 173.085 167.089C156.138 185.277 132.98 196.489 108.161 198.52C83.343 200.551 58.66 193.255 38.9644 178.066L5.89799 180.169Z" fill="url(#paint0_linear_201_254)"/>
<path d="M53.8657 71.2117C53.2886 68.3746 53 65.4829 53 62.5367C53.1443 59.5905 53.8657 56.6988 55.1644 53.8617C56.7516 50.1516 59.3488 46.878 62.9561 44.0409C66.5633 41.2038 70.6756 38.9669 75.293 37.3301C80.1988 35.5841 85.1769 34.3838 90.2271 33.7291C95.4215 32.9653 100.472 32.8016 105.378 33.2381C110.428 33.6746 115.262 34.6566 119.879 36.1843C124.64 37.6029 129.113 39.6761 133.298 42.4041C137.771 45.3504 141.09 48.7876 143.254 52.7159C145.563 56.5351 146.789 60.518 146.933 64.6645C147.222 68.8111 146.573 72.9576 144.985 77.1042C143.543 81.1416 141.306 84.9062 138.276 88.398C138.276 88.398 138.204 88.5072 138.06 88.7254C135.607 91.2352 132.793 93.5267 129.618 95.5999C126.444 97.5641 123.486 99.6919 120.745 101.983C117.57 104.493 115.694 107.057 115.117 109.676C114.54 112.186 113.963 115.023 113.386 118.188C112.953 121.243 111.871 123.916 110.139 126.208C108.552 128.39 105.522 129.427 101.049 129.318C98.0188 129.209 95.7101 128.499 94.1229 127.19C92.68 125.772 91.5978 124.135 90.8764 122.28C90.2992 120.316 90.0828 118.297 90.2271 116.224C90.3714 114.041 90.5878 112.132 90.8764 110.495C91.7421 106.676 93.3293 103.075 95.638 99.6919C97.9466 96.2001 100.76 92.9265 104.079 89.8712C105.955 88.2344 107.831 86.7612 109.706 85.4518C111.582 84.0333 113.314 82.5601 114.901 81.0325C116.488 79.5048 117.859 77.868 119.013 76.1221C120.167 74.3762 120.961 72.3575 121.394 70.0659C121.827 67.9927 121.61 65.9194 120.745 63.8461C119.879 61.6637 118.58 59.7541 116.849 58.1173C115.117 56.3714 113.025 54.9529 110.572 53.8617C108.119 52.6614 105.45 52.0067 102.564 51.8975C99.9667 51.7884 97.2252 52.0612 94.3394 52.7159C91.4535 53.2615 88.7842 54.189 86.3312 55.4985C83.8783 56.6988 81.8582 58.1719 80.271 59.9178C78.8281 61.6637 78.1788 63.6279 78.3231 65.8103C78.4674 67.1197 78.7559 68.4837 79.1888 69.9023C79.766 71.2117 80.1267 72.5211 80.271 73.8306C80.5596 75.0309 80.4874 76.2312 80.0546 77.4315C79.766 78.6318 78.8281 79.7776 77.2409 80.8688C74.6436 82.7238 72.0464 83.6513 69.4492 83.6513C66.8519 83.5422 64.4711 82.8875 62.3068 81.6872C60.1424 80.4869 58.2666 78.9592 56.6794 77.1042C55.2365 75.14 54.2986 73.1759 53.8657 71.2117ZM116.199 152.888C116.199 156.052 114.612 158.889 111.438 161.399C108.408 163.8 104.873 165 100.832 165C96.9366 165 93.4736 163.8 90.4435 161.399C87.4134 158.78 85.8983 155.943 85.8983 152.888C85.8983 149.505 87.4134 146.668 90.4435 144.376C93.4736 141.867 96.9366 140.612 100.832 140.612C104.873 140.612 108.408 141.867 111.438 144.376C114.612 146.777 116.199 149.614 116.199 152.888Z" fill="white"/>
<defs>
<linearGradient id="paint0_linear_201_254" x1="59" y1="12" x2="165" y2="176" gradientUnits="userSpaceOnUse">
<stop stop-color="#2874E9"/>
<stop offset="1" stop-color="#C459F7"/>
</linearGradient>
</defs>
</svg>
